<svg xmlns="http://www.w3.org/2000/svg" class="svg-logo" width="2400" height="2400" viewBox="0 0 630 430" style="height: auto;"><rect width="630" height="630" y="-100" rx="0" ry="0" fill="#ffffff" fill-opacity="1"></rect><g data-element="wrapper" transform="translate(1.0166625976531662 -2.4908065795919754) scale(1.0000000000000098)"><g ><g data-element="icon" transform="scale(0.13333333333333333) translate(2062.4374923706055 1792.4304733276367)"><path id="color_x5F_1" d="M592.417,488.744H7.583c-7.809,0-10.505-10.385-3.681-14.179l93.857-52.227    c1.138-0.627,2.397-0.959,3.683-0.959H498.56c1.284,0,2.543,0.332,3.681,0.959l93.857,52.227    C602.92,478.358,600.229,488.744,592.417,488.744z M509.467,129.725v255.288c0,10.204-8.27,18.476-18.476,18.476H109.008    c-10.202,0-18.474-8.272-18.474-18.476V129.725c0-10.202,8.272-18.468,18.474-18.468H490.99    C501.197,111.256,509.467,119.523,509.467,129.725z M377.026,194.916c-31.661-8.587-57.31-25.933-69.439-35.198    c-4.493-3.434-10.678-3.434-15.175,0c-12.127,9.264-37.776,26.611-69.439,35.198c-5.846,1.584-9.814,7.048-9.312,13.08    c2.395,28.616,14.905,106.747,80.474,139.857c3.695,1.868,8.041,1.868,11.734,0c65.571-33.111,78.077-111.241,80.476-139.857    C386.843,201.964,382.876,196.5,377.026,194.916z M328.597,233.205c0-15.8-12.806-28.605-28.591-28.605    c-15.796,0-28.6,12.805-28.6,28.605c0,10.374,5.535,19.435,13.808,24.448l-2.114,26.256c-0.474,5.986,4.251,11.109,10.247,11.109    h13.305c5.998,0,10.724-5.124,10.247-11.109l-2.114-26.259C323.062,252.64,328.597,243.579,328.597,233.205z" fill="#000000" fill-opacity="1"></path></g><path d="M139.06 165.17L139.06 165.17Q137.72 163.51 135.78 163.51L135.78 163.51Q134.10 163.51 133.28 164.32L133.28 164.32Q131.94 165.67 131.94 167.23L131.94 167.23L131.94 182.51Q131.94 184.11 132.72 184.86L132.72 184.86Q134.10 186.17 135.63 186.17L135.63 186.17L143.31 186.17Q145.16 186.17 145.91 187.95L145.91 187.95Q146.13 188.45 146.13 189.03Q146.13 189.61 145.91 190.12Q145.69 190.64 145.31 191.01L145.31 191.01Q144.50 191.82 143.31 191.82L143.31 191.82L133.78 191.82Q129.97 191.82 127.25 189.11Q124.53 186.39 124.53 182.57L124.53 182.57L124.53 167.07Q124.53 163.04 127.25 160.57L127.25 160.57Q130.22 157.89 135.63 157.89L135.63 157.89Q142.91 157.89 145.35 161.26L145.35 161.26Q146.13 162.29 146.13 163.34Q146.13 164.39 145.85 165.06Q145.56 165.73 145.06 166.23L145.06 166.23Q144.00 167.29 142.66 167.29L142.66 167.29Q140.47 167.29 139.06 165.17ZM172.08 159.25Q172.88 158.48 173.55 158.18Q174.22 157.89 174.99 157.89Q175.75 157.89 176.44 158.17Q177.13 158.45 177.63 158.95L177.63 158.95Q178.72 160.04 178.72 161.54L178.72 161.54L178.72 197.39Q178.72 201.23 176.00 203.92L176.00 203.92Q173.22 206.64 169.41 206.64L169.41 206.64L163.88 206.64Q162.69 206.64 161.86 205.82Q161.03 205.01 161.03 203.82L161.03 203.82Q161.03 202.64 161.86 201.81Q162.69 200.98 163.88 200.98L163.88 200.98L167.56 200.98Q169.16 200.98 169.94 200.20L169.94 200.20Q171.28 198.86 171.28 197.32L171.28 197.32L171.28 190.54Q171.28 189.95 170.96 189.75Q170.63 189.54 170.31 189.54Q170.00 189.54 169.75 189.82L169.75 189.82L169.22 190.32Q167.10 192.45 164.31 192.45L164.31 192.45Q160.94 192.45 158.72 189.70L158.72 189.70Q156.50 186.98 156.50 183.20L156.50 183.20L156.50 161.54Q156.50 159.17 158.75 158.20L158.75 158.20Q159.41 157.89 160.17 157.89Q160.94 157.89 161.63 158.17Q162.31 158.45 162.81 158.95L162.81 158.95Q163.91 160.04 163.91 161.54L163.91 161.54L163.91 183.11Q163.91 184.64 164.69 185.45L164.69 185.45Q166.00 186.82 167.16 186.82Q168.31 186.82 168.99 186.59Q169.66 186.36 170.19 185.92L170.19 185.92Q171.28 184.98 171.28 183.48L171.28 183.48L171.28 161.54Q171.28 160.01 172.08 159.25ZM188.47 188.11L188.47 147.48Q188.47 145.07 190.72 144.07L190.72 144.07Q191.41 143.76 192.19 143.76Q192.97 143.76 193.64 144.06Q194.31 144.36 194.81 144.86L194.81 144.86Q195.91 145.95 195.91 147.48L195.91 147.48L195.91 159.79Q195.91 160.39 196.24 160.59Q196.56 160.79 196.86 160.79Q197.16 160.79 197.41 160.53Q197.66 160.26 198.22 159.70L198.22 159.70Q200.06 157.86 202.88 157.86L202.88 157.86Q206.19 157.86 208.47 160.57L208.47 160.57Q210.69 163.29 210.69 167.17L210.69 167.17L210.69 182.61Q210.69 186.39 207.97 189.11Q205.25 191.82 201.47 191.82L201.47 191.82L192.22 191.82Q190.66 191.82 189.85 191.04L189.85 191.04Q188.47 189.73 188.47 188.11L188.47 188.11ZM203.28 182.48L203.28 167.20Q203.28 164.82 201.03 163.82L201.03 163.82Q200.38 163.54 199.22 163.54Q198.06 163.54 197.03 164.51Q196.00 165.48 195.91 166.95L195.91 166.95L195.91 186.20L199.60 186.20Q201.16 186.20 201.94 185.42L201.94 185.42Q203.28 184.07 203.28 182.48L203.28 182.48ZM237.06 186.17Q238.25 186.17 239.06 187.01Q239.88 187.86 239.88 189.03Q239.88 190.20 239.06 191.01Q238.25 191.82 237.06 191.82L237.06 191.82L229.69 191.82Q225.88 191.82 223.16 189.11Q220.44 186.39 220.44 182.57L220.44 182.57L220.44 167.23Q220.44 162.98 223.31 160.45L223.31 160.45Q226.31 157.89 231.56 157.89L231.56 157.89Q236.75 157.89 239.75 160.45L239.75 160.45Q242.66 163.01 242.66 167.29L242.66 167.29L242.66 176.04Q242.66 177.61 241.88 178.39L241.88 178.39Q240.53 179.73 238.94 179.73L238.94 179.73L227.85 179.73L227.85 182.51Q227.85 184.11 228.63 184.86L228.63 184.86Q230.00 186.17 231.53 186.17L231.53 186.17L237.06 186.17ZM235.25 174.26L235.25 167.23Q235.25 165.67 234.47 164.89L234.47 164.89Q233.10 163.51 231.56 163.51L231.56 163.51Q230.00 163.51 229.19 164.32L229.19 164.32Q227.85 165.67 227.85 167.23L227.85 167.23L227.85 174.26L235.25 174.26ZM266.91 157.89L266.91 157.89Q267.69 157.89 268.44 158.11Q269.19 158.32 269.85 158.79L269.85 158.79Q271.35 159.89 271.35 161.82L271.35 161.82Q271.35 163.39 270.53 164.17L270.53 164.17Q269.13 165.51 267.91 165.51L267.91 165.51Q266.35 165.51 265.06 164.51L265.06 164.51Q264.06 163.86 262.81 163.86Q261.56 163.86 260.85 164.65Q260.13 165.45 260.13 166.67L260.13 166.67L260.13 188.76Q260.13 190.26 259.35 191.07L259.35 191.07Q257.94 192.45 256.80 192.45Q255.66 192.45 254.99 192.15Q254.31 191.86 253.81 191.36L253.81 191.36Q252.72 190.26 252.72 188.76L252.72 188.76L252.72 161.64Q252.72 160.11 253.53 159.26L253.53 159.26Q254.85 157.89 256.05 157.89Q257.25 157.89 257.85 158.15Q258.44 158.42 258.85 158.76L258.85 158.76Q259.41 159.26 259.66 159.78Q259.91 160.29 260.08 160.54Q260.25 160.79 260.64 160.79Q261.03 160.79 261.28 160.54L261.28 160.54L261.85 160.01Q264.28 157.89 266.91 157.89ZM283.13 191.82Q281.97 191.82 281.13 191.01Q280.28 190.20 280.28 189.32Q280.28 188.45 280.52 187.93Q280.75 187.42 281.16 187.01L281.16 187.01Q282.00 186.17 283.13 186.17L283.13 186.17L290.03 186.17Q291.94 186.17 293.10 185.09Q294.25 184.01 294.25 182.42Q294.25 180.82 293.38 179.84Q292.50 178.86 291.22 178.45L291.22 178.45L285.60 176.89Q282.69 176.01 280.97 173.64L280.97 173.64Q279.22 171.23 279.22 168.54Q279.22 165.86 280.02 164.11Q280.81 162.36 282.16 161.11L282.16 161.11Q284.94 158.51 289.03 158.51L289.03 158.51L296.66 158.51Q297.85 158.51 298.63 159.34Q299.41 160.17 299.41 161.36L299.41 161.36Q299.41 162.54 298.63 163.34Q297.85 164.14 296.66 164.14L296.66 164.14L289.63 164.14Q288.03 164.14 287.14 165.07Q286.25 166.01 286.25 167.29L286.25 167.29Q286.25 169.29 288.47 170.29L288.47 170.29L294.60 172.07Q299.53 173.73 301.16 178.32L301.16 178.32Q301.69 179.89 301.69 181.92Q301.69 183.95 300.86 185.79Q300.03 187.64 298.66 188.98L298.66 188.98Q295.75 191.82 291.81 191.82L291.81 191.82L283.13 191.82ZM327.63 186.17Q328.81 186.17 329.63 187.01Q330.44 187.86 330.44 189.03Q330.44 190.20 329.63 191.01Q328.81 191.82 327.63 191.82L327.63 191.82L320.25 191.82Q316.44 191.82 313.72 189.11Q311.00 186.39 311.00 182.57L311.00 182.57L311.00 167.23Q311.00 162.98 313.88 160.45L313.88 160.45Q316.88 157.89 322.13 157.89L322.13 157.89Q327.31 157.89 330.31 160.45L330.31 160.45Q333.22 163.01 333.22 167.29L333.22 167.29L333.22 176.04Q333.22 177.61 332.44 178.39L332.44 178.39Q331.10 179.73 329.50 179.73L329.50 179.73L318.41 179.73L318.41 182.51Q318.41 184.11 319.19 184.86L319.19 184.86Q320.56 186.17 322.10 186.17L322.10 186.17L327.63 186.17ZM325.81 174.26L325.81 167.23Q325.81 165.67 325.03 164.89L325.03 164.89Q323.66 163.51 322.13 163.51L322.13 163.51Q320.56 163.51 319.75 164.32L319.75 164.32Q318.41 165.67 318.41 167.23L318.41 167.23L318.41 174.26L325.81 174.26ZM357.50 165.17L357.50 165.17Q356.16 163.51 354.22 163.51L354.22 163.51Q352.53 163.51 351.72 164.32L351.72 164.32Q350.38 165.67 350.38 167.23L350.38 167.23L350.38 182.51Q350.38 184.11 351.16 184.86L351.16 184.86Q352.53 186.17 354.06 186.17L354.06 186.17L361.75 186.17Q363.60 186.17 364.35 187.95L364.35 187.95Q364.56 188.45 364.56 189.03Q364.56 189.61 364.35 190.12Q364.13 190.64 363.75 191.01L363.75 191.01Q362.94 191.82 361.75 191.82L361.75 191.82L352.22 191.82Q348.41 191.82 345.69 189.11Q342.97 186.39 342.97 182.57L342.97 182.57L342.97 167.07Q342.97 163.04 345.69 160.57L345.69 160.57Q348.66 157.89 354.06 157.89L354.06 157.89Q361.35 157.89 363.78 161.26L363.78 161.26Q364.56 162.29 364.56 163.34Q364.56 164.39 364.28 165.06Q364.00 165.73 363.50 166.23L363.50 166.23Q362.44 167.29 361.10 167.29L361.10 167.29Q358.91 167.29 357.50 165.17ZM390.55 159.25Q391.35 158.48 392.02 158.18Q392.69 157.89 393.46 157.89Q394.22 157.89 394.89 158.17Q395.56 158.45 396.06 158.95L396.06 158.95Q397.16 160.04 397.16 161.54L397.16 161.54L397.16 188.70Q397.16 190.23 396.38 191.07L396.38 191.07Q395.03 192.45 393.83 192.45Q392.63 192.45 392.03 192.18Q391.44 191.92 391.06 191.57L391.06 191.57Q390.47 191.07 390.24 190.56Q390.00 190.04 389.81 189.79Q389.63 189.54 389.24 189.54Q388.85 189.54 388.60 189.81Q388.35 190.07 387.78 190.64L387.78 190.64Q385.91 192.45 383.67 192.45Q381.44 192.45 379.94 191.72Q378.44 190.98 377.31 189.70L377.31 189.70Q374.94 186.98 374.94 183.20L374.94 183.20L374.94 161.54Q374.94 159.17 377.19 158.20L377.19 158.20Q377.85 157.89 378.61 157.89Q379.38 157.89 380.06 158.17Q380.75 158.45 381.25 158.95L381.25 158.95Q382.35 160.04 382.35 161.54L382.35 161.54L382.35 183.11Q382.35 184.67 383.13 185.45L383.13 185.45Q384.50 186.82 386.00 186.82L386.00 186.82Q388.47 186.82 389.44 184.89L389.44 184.89Q389.75 184.26 389.75 183.48L389.75 183.48L389.75 161.54Q389.75 160.01 390.55 159.25ZM421.41 157.89L421.41 157.89Q422.19 157.89 422.94 158.11Q423.69 158.32 424.35 158.79L424.35 158.79Q425.85 159.89 425.85 161.82L425.85 161.82Q425.85 163.39 425.03 164.17L425.03 164.17Q423.63 165.51 422.41 165.51L422.41 165.51Q420.85 165.51 419.56 164.51L419.56 164.51Q418.56 163.86 417.31 163.86Q416.06 163.86 415.35 164.65Q414.63 165.45 414.63 166.67L414.63 166.67L414.63 188.76Q414.63 190.26 413.85 191.07L413.85 191.07Q412.44 192.45 411.30 192.45Q410.16 192.45 409.49 192.15Q408.81 191.86 408.31 191.36L408.31 191.36Q407.22 190.26 407.22 188.76L407.22 188.76L407.22 161.64Q407.22 160.11 408.03 159.26L408.03 159.26Q409.35 157.89 410.55 157.89Q411.75 157.89 412.35 158.15Q412.94 158.42 413.35 158.76L413.35 158.76Q413.91 159.26 414.16 159.78Q414.41 160.29 414.58 160.54Q414.75 160.79 415.14 160.79Q415.53 160.79 415.78 160.54L415.78 160.54L416.35 160.01Q418.78 157.89 421.41 157.89ZM435.50 188.79L435.50 161.64Q435.50 160.11 436.28 159.26L436.28 159.26Q437.63 157.89 439.25 157.89L439.25 157.89Q440.81 157.89 441.56 158.70L441.56 158.70Q442.94 160.11 442.94 161.64L442.94 161.64L442.94 188.79Q442.94 190.29 442.16 191.07L442.16 191.07Q440.78 192.45 439.63 192.45Q438.47 192.45 437.78 192.15Q437.10 191.86 436.60 191.39L436.60 191.39Q435.50 190.32 435.50 188.79L435.50 188.79ZM439.25 143.76L439.25 143.76Q440.97 143.76 442.22 145.01L442.22 145.01Q443.47 146.26 443.47 147.54Q443.47 148.82 443.13 149.57Q442.78 150.32 442.22 150.89L442.22 150.89Q440.97 152.14 439.25 152.14L439.25 152.14Q437.53 152.14 436.28 150.89L436.28 150.89Q435.03 149.64 435.03 148.39L435.03 148.39Q435.03 146.26 436.28 145.01Q437.53 143.76 439.25 143.76ZM470.81 186.17Q472.00 186.17 472.78 187.01Q473.56 187.86 473.56 189.03Q473.56 190.20 472.78 191.01Q472.00 191.82 470.81 191.82L470.81 191.82L467.06 191.82Q463.25 191.82 460.53 189.11L460.53 189.11Q457.85 186.42 457.85 182.57L457.85 182.57L457.85 164.01L454.16 164.01Q452.38 164.01 451.63 162.32L451.63 162.32Q451.41 161.82 451.41 161.26L451.41 161.26Q451.41 159.48 453.10 158.73L453.10 158.73Q453.60 158.51 454.16 158.51L454.16 158.51L457.85 158.51L457.85 152.01Q457.85 149.54 460.10 148.57L460.10 148.57Q460.75 148.26 461.53 148.26L461.53 148.26Q463.06 148.26 463.85 149.07L463.85 149.07Q465.22 150.42 465.22 152.01L465.22 152.01L465.22 158.51L470.88 158.51Q471.97 158.51 472.56 159.11L472.56 159.11Q473.56 160.11 473.56 161.25Q473.56 162.39 472.78 163.20Q472.00 164.01 470.88 164.01L470.88 164.01L465.22 164.01L465.22 182.51Q465.22 184.07 466.03 184.82L466.03 184.82Q467.41 186.17 468.91 186.17L468.91 186.17L470.81 186.17ZM496.83 159.25Q497.63 158.48 498.30 158.18Q498.97 157.89 499.74 157.89Q500.50 157.89 501.19 158.17Q501.88 158.45 502.38 158.95L502.38 158.95Q503.47 160.04 503.47 161.54L503.47 161.54L503.47 197.39Q503.47 201.23 500.75 203.92L500.75 203.92Q497.97 206.64 494.16 206.64L494.16 206.64L488.63 206.64Q487.44 206.64 486.61 205.82Q485.78 205.01 485.78 203.82L485.78 203.82Q485.78 202.64 486.61 201.81Q487.44 200.98 488.63 200.98L488.63 200.98L492.31 200.98Q493.91 200.98 494.69 200.20L494.69 200.20Q496.03 198.86 496.03 197.32L496.03 197.32L496.03 190.54Q496.03 189.95 495.71 189.75Q495.38 189.54 495.06 189.54Q494.75 189.54 494.50 189.82L494.50 189.82L493.97 190.32Q491.85 192.45 489.06 192.45L489.06 192.45Q485.69 192.45 483.47 189.70L483.47 189.70Q481.25 186.98 481.25 183.20L481.25 183.20L481.25 161.54Q481.25 159.17 483.50 158.20L483.50 158.20Q484.16 157.89 484.92 157.89Q485.69 157.89 486.38 158.17Q487.06 158.45 487.56 158.95L487.56 158.95Q488.66 160.04 488.66 161.54L488.66 161.54L488.66 183.11Q488.66 184.64 489.44 185.45L489.44 185.45Q490.75 186.82 491.91 186.82Q493.06 186.82 493.74 186.59Q494.41 186.36 494.94 185.92L494.94 185.92Q496.03 184.98 496.03 183.48L496.03 183.48L496.03 161.54Q496.03 160.01 496.83 159.25Z" data-element="company-name" data-text-path="" data-text="cybersecurity" data-font-family="Supermercado One" fill="#000000" fill-opacity="1"></path><path d="M108.84 212.66L108.84 212.66L118.03 212.66Q121.20 212.66 123.53 213.50Q125.86 214.34 127.30 216.32Q128.74 218.31 128.74 221.28L128.74 221.28L128.74 224.21Q128.74 228.82 125.63 230.92L125.63 230.92Q122.78 232.82 118.03 232.82L118.03 232.82L108.84 232.82Q108.52 232.82 108.29 232.59Q108.06 232.36 108.06 232.05L108.06 232.05L108.06 213.44Q108.06 213.13 108.29 212.90Q108.52 212.66 108.84 212.66ZM118.17 218.28L115.55 218.28L115.55 227.21L118.17 227.21Q119.53 227.21 120.32 226.56Q121.11 225.91 121.11 224.73L121.11 224.73L121.11 220.76Q121.11 219.58 120.32 218.93Q119.53 218.28 118.17 218.28L118.17 218.28ZM153.31 220.99L153.31 220.99L153.31 224.50Q153.31 227.47 151.87 229.46Q150.43 231.44 148.10 232.28Q145.76 233.11 142.60 233.11Q139.43 233.11 137.09 232.28Q134.76 231.44 133.32 229.46Q131.88 227.47 131.88 224.44L131.88 224.44L131.88 221.05Q131.88 216.70 134.86 214.54Q137.84 212.38 142.60 212.38Q147.35 212.38 150.33 214.54Q153.31 216.70 153.31 220.99ZM139.66 220.44L139.66 220.44L139.66 225.05Q139.66 226.23 140.45 226.86Q141.24 227.50 142.60 227.50Q143.95 227.50 144.74 226.85Q145.53 226.20 145.53 225.02L145.53 225.02L145.53 220.47Q145.53 219.29 144.74 218.64Q143.95 217.99 142.60 217.99Q141.24 217.99 140.45 218.63Q139.66 219.26 139.66 220.44ZM170.73 212.66L170.73 212.66L176.09 212.66Q176.41 212.66 176.64 212.90Q176.87 213.13 176.87 213.44L176.87 213.44L176.87 232.05Q176.87 232.36 176.64 232.59Q176.41 232.82 176.09 232.82L176.09 232.82L171.45 232.82Q170.76 232.82 170.30 232.22L170.30 232.22L164.02 224.21L164.02 232.05Q164.02 232.36 163.79 232.59Q163.56 232.82 163.24 232.82L163.24 232.82L157.89 232.82Q157.57 232.82 157.34 232.59Q157.11 232.36 157.11 232.05L157.11 232.05L157.11 213.44Q157.11 213.13 157.34 212.90Q157.57 212.66 157.89 212.66L157.89 212.66L162.55 212.66Q163.24 212.66 163.68 213.24L163.68 213.24L169.96 221.91L169.96 213.44Q169.96 213.13 170.19 212.90Q170.42 212.66 170.73 212.66ZM189.80 212.38L189.80 212.38L195.13 212.38Q195.39 212.38 195.57 212.56Q195.76 212.75 195.76 212.94Q195.76 213.13 195.73 213.21L195.73 213.21L193.00 220.15Q192.65 221.07 191.67 221.07L191.67 221.07L187.98 221.07Q187.72 221.07 187.54 220.89Q187.35 220.70 187.35 220.44L187.35 220.44L187.35 220.38L188.42 213.50Q188.47 213.07 188.86 212.72Q189.25 212.38 189.80 212.38ZM206.10 212.66L206.10 212.66L225.97 212.66Q226.29 212.66 226.52 212.90Q226.75 213.13 226.75 213.44L226.75 213.44L226.75 218.08Q226.75 218.40 226.52 218.63Q226.29 218.86 225.97 218.86L225.97 218.86L219.78 218.86L219.78 232.05Q219.78 232.36 219.55 232.59Q219.32 232.82 219.00 232.82L219.00 232.82L213.07 232.82Q212.75 232.82 212.52 232.59Q212.29 232.36 212.29 232.05L212.29 232.05L212.29 218.86L206.10 218.86Q205.78 218.86 205.55 218.63Q205.32 218.40 205.32 218.08L205.32 218.08L205.32 213.44Q205.32 213.13 205.55 212.90Q205.78 212.66 206.10 212.66ZM267.01 220.67L267.01 220.67L275.36 220.67Q275.68 220.67 275.91 220.90Q276.14 221.13 276.14 221.45L276.14 221.45L276.14 224.50Q276.14 228.88 273.16 231.00Q270.18 233.11 265.28 233.11Q260.39 233.11 257.41 231.00Q254.43 228.88 254.43 224.44L254.43 224.44L254.43 221.05Q254.43 218.83 255.28 217.13Q256.12 215.43 257.65 214.39L257.65 214.39Q260.65 212.38 265.28 212.38L265.28 212.38Q267.59 212.38 269.50 212.91Q271.42 213.44 272.56 214.23Q273.69 215.03 274.50 215.95L274.50 215.95Q275.91 217.56 275.91 218.80L275.91 218.80Q275.91 219.06 275.72 219.25Q275.54 219.43 275.28 219.43L275.28 219.43L268.77 219.43Q268.19 219.43 267.93 219.12L267.93 219.12Q267.04 217.99 265.50 217.99Q263.96 217.99 263.08 218.60Q262.20 219.20 262.20 220.15L262.20 220.15L262.20 225.05Q262.20 226.20 263.07 226.85Q263.93 227.50 265.50 227.50Q267.07 227.50 267.92 226.88Q268.77 226.26 268.80 225.42L268.80 225.42L267.01 225.42Q266.69 225.42 266.46 225.19Q266.23 224.96 266.23 224.65L266.23 224.65L266.23 221.45Q266.23 221.13 266.46 220.90Q266.69 220.67 267.01 220.67ZM287.32 225.39L287.32 227.21L298.81 227.21Q299.12 227.21 299.35 227.44Q299.58 227.67 299.58 227.99L299.58 227.99L299.58 232.05Q299.58 232.36 299.35 232.59Q299.12 232.82 298.81 232.82L298.81 232.82L280.60 232.82Q280.29 232.82 280.06 232.59Q279.83 232.36 279.83 232.05L279.83 232.05L279.83 213.44Q279.83 213.13 280.06 212.90Q280.29 212.66 280.60 212.66L280.60 212.66L298.52 212.66Q298.84 212.66 299.07 212.90Q299.30 213.13 299.30 213.44L299.30 213.44L299.30 217.50Q299.30 217.82 299.07 218.05Q298.84 218.28 298.52 218.28L298.52 218.28L287.32 218.28L287.32 220.10L296.93 220.10Q297.25 220.10 297.48 220.33Q297.71 220.56 297.71 220.87L297.71 220.87L297.71 224.62Q297.71 224.93 297.48 225.16Q297.25 225.39 296.93 225.39L296.93 225.39L287.32 225.39ZM304.02 212.66L304.02 212.66L323.89 212.66Q324.21 212.66 324.44 212.90Q324.67 213.13 324.67 213.44L324.67 213.44L324.67 218.08Q324.67 218.40 324.44 218.63Q324.21 218.86 323.89 218.86L323.89 218.86L317.70 218.86L317.70 232.05Q317.70 232.36 317.47 232.59Q317.24 232.82 316.92 232.82L316.92 232.82L310.99 232.82Q310.67 232.82 310.44 232.59Q310.21 232.36 310.21 232.05L310.21 232.05L310.21 218.86L304.02 218.86Q303.70 218.86 303.47 218.63Q303.24 218.40 303.24 218.08L303.24 218.08L303.24 213.44Q303.24 213.13 303.47 212.90Q303.70 212.66 304.02 212.66ZM366.57 212.66L366.57 212.66L372.51 212.66Q372.82 212.66 373.05 212.90Q373.28 213.13 373.28 213.44L373.28 213.44L373.28 232.05Q373.28 232.36 373.05 232.59Q372.82 232.82 372.51 232.82L372.51 232.82L366.57 232.82Q366.26 232.82 366.03 232.59Q365.80 232.36 365.80 232.05L365.80 232.05L365.80 225.91L360.04 225.91L360.04 232.05Q360.04 232.36 359.80 232.59Q359.57 232.82 359.26 232.82L359.26 232.82L353.32 232.82Q353.01 232.82 352.78 232.61Q352.55 232.39 352.55 232.05L352.55 232.05L352.55 213.44Q352.55 213.13 352.78 212.90Q353.01 212.66 353.32 212.66L353.32 212.66L359.26 212.66Q359.57 212.66 359.80 212.90Q360.04 213.13 360.04 213.44L360.04 213.44L360.04 219.35L365.80 219.35L365.80 213.44Q365.80 213.13 366.03 212.90Q366.26 212.66 366.57 212.66ZM381.95 232.82L381.95 232.82L376.51 232.82Q376.25 232.82 376.06 232.64Q375.88 232.45 375.88 232.28Q375.88 232.10 375.90 232.02L375.90 232.02L382.18 213.62Q382.44 212.66 383.48 212.66L383.48 212.66L391.48 212.66Q392.52 212.66 392.78 213.62L392.78 213.62L399.06 232.02Q399.09 232.10 399.09 232.28Q399.09 232.45 398.90 232.64Q398.71 232.82 398.45 232.82L398.45 232.82L393.01 232.82Q392.09 232.82 391.72 231.85L391.72 231.85L391.00 229.83L383.97 229.83L383.25 231.85Q382.87 232.82 381.95 232.82ZM385.44 224.21L389.53 224.21L387.48 218.22L385.44 224.21ZM409.23 220.44L409.23 220.44L409.23 225.05Q409.23 226.23 410.02 226.86Q410.81 227.50 412.09 227.50Q413.37 227.50 413.95 227.09Q414.52 226.69 414.91 225.91Q415.30 225.14 415.94 225.14L415.94 225.14L422.16 225.14Q422.42 225.14 422.60 225.32Q422.79 225.51 422.79 225.77L422.79 225.77Q422.79 228.45 420.26 230.66L420.26 230.66Q418.99 231.76 416.89 232.44Q414.78 233.11 411.93 233.11Q409.08 233.11 406.73 232.23Q404.39 231.36 402.92 229.35Q401.45 227.35 401.45 224.44L401.45 224.44L401.45 221.05Q401.45 218.14 402.92 216.12L402.92 216.12Q405.68 212.38 412.16 212.38L412.16 212.38Q414.78 212.38 416.89 213.05Q418.99 213.73 420.26 214.82L420.26 214.82Q422.79 217.04 422.79 219.72L422.79 219.72Q422.79 219.98 422.60 220.17Q422.42 220.35 422.16 220.35L422.16 220.35L415.94 220.35Q415.30 220.35 414.91 219.58Q414.52 218.80 413.95 218.40Q413.37 217.99 412.09 217.99Q410.81 217.99 410.02 218.63Q409.23 219.26 409.23 220.44ZM440.47 222.02L448.25 231.82Q448.36 231.99 448.36 232.22Q448.36 232.45 448.18 232.64Q447.99 232.82 447.73 232.82L447.73 232.82L440.30 232.82Q439.64 232.82 439.26 232.36L439.26 232.36L434.25 226.17L434.25 232.05Q434.25 232.36 434.02 232.59Q433.79 232.82 433.48 232.82L433.48 232.82L427.54 232.82Q427.23 232.82 427.00 232.59Q426.76 232.36 426.76 232.05L426.76 232.05L426.76 213.44Q426.76 213.13 427.00 212.90Q427.23 212.66 427.54 212.66L427.54 212.66L433.48 212.66Q433.79 212.66 434.02 212.90Q434.25 213.13 434.25 213.44L434.25 213.44L434.25 218.86L438.80 213.15Q439.24 212.66 439.87 212.66L439.87 212.66L446.81 212.66Q447.07 212.66 447.26 212.85Q447.44 213.04 447.44 213.28Q447.44 213.53 447.30 213.70L447.30 213.70L440.47 222.02ZM458.68 225.39L458.68 227.21L470.17 227.21Q470.48 227.21 470.71 227.44Q470.94 227.67 470.94 227.99L470.94 227.99L470.94 232.05Q470.94 232.36 470.71 232.59Q470.48 232.82 470.17 232.82L470.17 232.82L451.96 232.82Q451.65 232.82 451.42 232.59Q451.19 232.36 451.19 232.05L451.19 232.05L451.19 213.44Q451.19 213.13 451.42 212.90Q451.65 212.66 451.96 212.66L451.96 212.66L469.88 212.66Q470.20 212.66 470.43 212.90Q470.66 213.13 470.66 213.44L470.66 213.44L470.66 217.50Q470.66 217.82 470.43 218.05Q470.20 218.28 469.88 218.28L469.88 218.28L458.68 218.28L458.68 220.10L468.29 220.10Q468.61 220.10 468.84 220.33Q469.07 220.56 469.07 220.87L469.07 220.87L469.07 224.62Q469.07 224.93 468.84 225.16Q468.61 225.39 468.29 225.39L468.29 225.39L458.68 225.39ZM476.04 212.66L476.04 212.66L485.23 212.66Q488.40 212.66 490.73 213.50Q493.06 214.34 494.50 216.32Q495.94 218.31 495.94 221.28L495.94 221.28L495.94 224.21Q495.94 228.82 492.83 230.92L492.83 230.92Q489.98 232.82 485.23 232.82L485.23 232.82L476.04 232.82Q475.72 232.82 475.49 232.59Q475.26 232.36 475.26 232.05L475.26 232.05L475.26 213.44Q475.26 213.13 475.49 212.90Q475.72 212.66 476.04 212.66ZM485.37 218.28L482.75 218.28L482.75 227.21L485.37 227.21Q486.73 227.21 487.52 226.56Q488.31 225.91 488.31 224.73L488.31 224.73L488.31 220.76Q488.31 219.58 487.52 218.93Q486.73 218.28 485.37 218.28L485.37 218.28ZM506.77 225.97L506.77 225.97L512.82 225.97Q513.14 225.97 513.37 226.20Q513.60 226.43 513.60 226.75L513.60 226.75L513.60 232.05Q513.60 232.36 513.37 232.59Q513.14 232.82 512.82 232.82L512.82 232.82L506.77 232.82Q506.45 232.82 506.22 232.59Q505.99 232.36 505.99 232.05L505.99 232.05L505.99 226.75Q505.99 226.43 506.22 226.20Q506.45 225.97 506.77 225.97Z" data-element="slogan" data-text-path="" data-text="Don’t get hacked." data-font-family="Rubik Mono One" fill="#000000" fill-opacity="1"></path></g></g></svg>